# xmcd
#
# Track frame offsets:
#	150
#	12090
#	26985
#	39110
#	51435
#	63477
#	76007
#	88662
#	101595
#	114207
#	127675
#	141157
#
# Disc length: 2016 seconds
#
# Revision: 0
# Processed by: cddbd v1.4PL0 Copyright (c) Steve Scherf et al.
# Submitted via: dBpowerAMP V4.0
#
DISCID=8d07de0c
DTITLE=Jim and Jesse - Songs From The Homeplace
DYEAR=1998
DGENRE=Bluegrass
TTITLE0=East Bound Freight Train
TTITLE1=Dreaming Of A Little Cabin
TTITLE2=Give Me Your Love And I'll Give You Mine
TTITLE3=Worried Man Blues
TTITLE4=Faded Love And Winter Roses
TTITLE5=Jimmy Brown And The New Boy
TTITLE6=The End of Memory Lane
TTITLE7=No Letter In The Mail Today
TTITLE8=Keep On The Sunny Side Of Life
TTITLE9=I'll Be An Angel Too
TTITLE10=My Time Is Running Out
TTITLE11=My Long Journey Home
EXTD=
EXTT0=
EXTT1=
EXTT2=
EXTT3=
EXTT4=
EXTT5=
EXTT6=
EXTT7=
EXTT8=
EXTT9=
EXTT10=
EXTT11=
PLAYORDER=
